<mxfile host="app.diagrams.net" modified="2023-11-15T14:00:35.895Z" agent="Mozilla/5.0 (Windows NT 10.0; Win64; x64) AppleWebKit/537.36 (KHTML, like Gecko) Chrome/119.0.0.0 Safari/537.36" version="22.1.1" etag="G9MnBiKfmj3jrfcF1lwb" type="github">
  <diagram name="PÃ¡gina-1" id="pSZSbm4W_PxOUGbNvqFu">
    <mxGraphModel>
      <root>
        <mxCell id="0" />
        <mxCell id="1" parent="0" />
      </root>
    </mxGraphModel>
  </diagram>
</mxfile>
